<svg id="Default" xmlns="http://www.w3.org/2000/svg" viewBox="0 0 576.08 572.19"><defs><style>.cls-1{fill:#ccc;}</style></defs><path class="cls-1" d="M286.06,679.45A288,288,0,0,0,528.49,575l-93-158.54-149.46,263" transform="translate(-17.96 -107.96)"/><path class="cls-1" d="M544.88,556.94a288,288,0,0,0,30.79-262.15L391.88,296l153,260.91" transform="translate(-17.96 -107.96)"/><path class="cls-1" d="M564.82,269.6A288,288,0,0,0,353.18,111.85L262.36,271.64l302.46-2" transform="translate(-17.96 -107.96)"/><path class="cls-1" d="M325.94,108.65A288,288,0,0,0,83.51,213.06l93,158.55,149.46-263" transform="translate(-17.96 -107.96)"/><path class="cls-1" d="M67.12,235.06A288,288,0,0,0,36.33,497.21L220.12,496l-153-260.91" transform="translate(-17.96 -107.96)"/><path class="cls-1" d="M47.18,522.4A288,288,0,0,0,258.82,680.15l90.82-159.79-302.46,2" transform="translate(-17.96 -107.96)"/><path class="cls-1" d="M345.24,411.1v-1.29c25.05-4.9,31-14.2,31-48.54,0-38.46-14.2-51.37-55.77-51.37H235.77V482.1h33V424.79h46.47c18.34,0,26.34,7.48,25.82,26.33q-.42,15.5,0,31h33.31V444.67C374.42,423.75,364.87,412.14,345.24,411.1Zm-9-19.62c-3.88,3.62-10.59,5.17-20.92,5.17H269.08V338.3h48.54c21.17,0,25.3,4.64,25.3,28.91C342.92,381.93,341.63,387.09,336.21,391.48Z" transform="translate(-17.96 -107.96)"/></svg>